inDegrees=yes
name=ik_S42_A03_T01
DataType=double
version=3
OpenSimVersion=4.3-2021-08-27-4bc7ad9
endheader
time	pelvis_tilt	pelvis_list	pelvis_rotation	pelvis_tx	pelvis_ty	pelvis_tz	hip_flexion_r	hip_adduction_r	hip_rotation_r	knee_angle_r	knee_angle_r_beta	ankle_angle_r	subtalar_angle_r	mtp_angle_r	hip_flexion_l	hip_adduction_l	hip_rotation_l	knee_angle_l	knee_angle_l_beta	ankle_angle_l	subtalar_angle_l	mtp_angle_l	lumbar_extension	lumbar_bending	lumbar_rotation	arm_flex_r	arm_add_r	arm_rot_r	elbow_flex_r	pro_sup_r	wrist_flex_r	wrist_dev_r	arm_flex_l	arm_add_l	arm_rot_l	elbow_flex_l	pro_sup_l	wrist_flex_l	wrist_dev_l
22.05999999999962	0.9574307572804213	-2.577521787732235	93.27202704557021	0	0.9399999999999999	0	5.245220427146041	-0.6753507026925222	-14.48655513931367	3.269396843295476	0.05706173946981515	0	0	0	10.57075024592916	3.339574725435865	-2.620905732287161	8.301826471344437	0.1448942058541831	0	0	0	0	0	0	37.95115423529862	-37.95115423529862	4.798892900598077	82.24486549734277	85.20110736513315	0	0	37.95115423529862	-37.95115423529862	4.798892900598077	82.24486549734277	85.2011073650955	0	0
22.07999999999962	0.7985529196180193	-2.518238712828571	93.37855442578666	0	0.9399999999999999	0	5.132585011411592	-1.003363527280238	-14.50504216739898	4.07247930283616	0.07107817255381424	0	0	0	10.38763143283914	3.468792642357881	-2.326113644984309	8.191632414135723	0.14297095673976	0	0	0	0	0	0	37.95217474440807	-37.95217474440808	4.798950420842062	82.24565413888457	85.20104984489177	0	0	37.95217474440807	-37.95217474440808	4.798950420842062	82.24565413888457	85.20104984485411	0	0
22.09999999999962	0.598617019342386	-2.386780572214954	93.56991299093927	0	0.9399999999999999	0	5.173473705954683	-1.367244919534955	-13.99112850847379	5.741564579514412	0.1002092061284102	0	0	0	10.08049728709446	3.70454726935846	-2.023267862687454	7.7913379477338	0.1359845003235327	0	0	0	0	0	0	37.95390953493315	-37.95390953493316	4.799049819561246	82.24701701593058	85.20095044617729	0	0	37.95390953493315	-37.95390953493316	4.799049819561246	82.24701701593058	85.20095044613964	0	0
22.11999999999962	0.5469593256675794	-2.182400908980273	93.80476489904161	0	0.9399999999999999	0	5.155573934615733	-1.444655727453697	-13.49506884108562	6.925461789165201	0.1208721104419901	0	0	0	9.854275498069542	3.785935547460753	-1.796577711476938	7.790911491977912	0.1359770572664784	0	0	0	0	0	0	37.95526716551041	-37.95526716551041	4.799127612795679	82.24808365511575	85.20087265294652	0	0	37.95526716551041	-37.95526716551041	4.799127612795679	82.24808365511575	85.20087265290887	0	0
22.13999999999962	0.6420939552698384	-2.13511066519494	94.08569287406873	0	0.9399999999999999	0	6.592352880612327	-1.458623632851324	-12.82557280837405	9.12784610821631	0.1593109682037253	0	0	0	9.797685489120818	3.805135992461653	-1.538497823623004	7.355002244789502	0.1283690056631508	0	0	0	0	0	0	37.95853360713059	-37.9585336071306	4.799314537622671	82.25064660816925	85.20068572812835	0	0	37.95853360713059	-37.9585336071306	4.799314537622671	82.25064660816925	85.2006857280907	0	0
22.15999999999962	0.8279700985941788	-2.090940801259138	94.29093406054062	0	0.9399999999999999	0	7.576063463546618	-1.388907299615481	-9.985355062512147	10.08818285568583	0.1760720063749617	0	0	0	9.650332482573999	3.679266462921898	-1.708323208108832	7.016698960700293	0.1224644994854843	0	0	0	0	0	0	37.97424738375368	-37.97424738375369	4.800094707846829	82.26133973167768	85.19990555794007	0	0	37.97424738375368	-37.97424738375369	4.800094707846829	82.26133973167768	85.19990555790255	0	0
22.17999999999962	1.029770406934051	-2.001855065430335	94.4565635723015	0	0.9399999999999999	0	7.809795779990601	-1.217022579956224	-7.91317150736863	10.30127911188713	0.1797912376693477	0	0	0	9.332174857099185	3.565684500312957	-2.217375591605296	6.807846578873179	0.1188193377719688	0	0	0	0	0	0	37.98333124666888	-37.98333124666888	4.800552297751193	82.26761176381612	85.19944796805679	0	0	37.98333124666888	-37.98333124666888	4.800552297751193	82.26761176381612	85.19944796801938	0	0
22.19999999999962	1.232430480915636	-1.957757596152014	94.59675912792824	0	0.9399999999999999	0	7.907660318709429	-1.008318227624951	-5.658537015909829	9.929310023116155	0.1732991523546512	0	0	0	9.252759927852397	3.376158132429273	-2.124038602225566	6.454693184051566	0.1126556482677362	0	0	0	0	0	0	37.98856737861363	-37.98856737861364	4.80082519756136	82.27135263530583	85.19917506825928	0	0	37.98856737861363	-37.98856737861364	4.80082519756136	82.27135263530583	85.19917506822192	0	0
22.21999999999962	1.404386702985197	-1.920979450817142	94.83087726599285	0	0.9399999999999999	0	7.700999752945274	-0.6718746342909478	-3.405225110007565	8.940917627523508	0.1560484507498852	0	0	0	8.906134522173431	3.288567163993323	-2.635350272211833	6.074986962182943	0.1060285245058206	0	0	0	0	0	0	37.9913568347523	-37.9913568347523	4.800988278054374	82.27358874051724	85.19901198777394	0	0	37.9913568347523	-37.9913568347523	4.800988278054374	82.27358874051724	85.19901198773663	0	0
22.23999999999961	1.484975324873084	-1.880470106523469	94.9505038544705	0	0.9399999999999999	0	7.313258509176131	-0.4718379274789077	-1.854431724744717	8.089806287320314	0.1411937555622779	0	0	0	8.688920467958548	3.253554086398093	-2.791397648963993	5.816484358130158	0.1015168029401203	0	0	0	0	0	0	37.99296088951425	-37.99296088951426	4.801079895472249	82.27484490216058	85.19892037036036	0	0	37.99296088951425	-37.99296088951426	4.801079895472249	82.27484490216058	85.19892037032307	0	0
22.25999999999961	1.791705597122647	-1.657339440642904	95.63529147195139	0	0.9399999999999999	0	6.743358963000593	-0.1376690973216165	-1.136117318331311	7.146545103898723	0.124730742205313	0	0	0	8.257518759376442	3.045702426372948	-2.218349462364336	5.526266054678137	0.09645153799533047	0	0	0	0	0	0	37.99465583258713	-37.99465583258714	4.801176640863748	82.27617137039766	85.1988236249734	0	0	37.99465583258713	-37.99465583258714	4.801176640863748	82.27617137039766	85.19882362493613	0	0
22.27999999999961	1.792601819234746	-1.659274030359839	95.62728778225021	0	0.9399999999999999	0	6.198348040347969	-0.06098083900073594	-0.6794663252081928	6.565511675588912	0.1145897958171563	0	0	0	8.045259520556323	3.032218040312426	-2.46158977136444	5.257992505172981	0.0917692812604535	0	0	0	0	0	0	37.99593627672477	-37.99593627672478	4.801249717940952	82.27717332345219	85.19875054789969	0	0	37.99593627672477	-37.99593627672478	4.801249717940952	82.27717332345219	85.19875054786242	0	0
22.29999999999961	2.05477381890599	-1.374688572339561	96.24020703510318	0	0.9399999999999999	0	5.638661242120905	0.4885605396085156	-0.3426748867449156	5.93172635282255	0.1035281551840683	0	0	0	7.560108753621997	2.815074463059928	-2.06443645382054	5.077164207974138	0.08861323209355886	0	0	0	0	0	0	37.99708753019778	-37.99708753019779	4.801315353647209	82.27807324592459	85.19868491219654	0	0	37.99708753019778	-37.99708753019779	4.801315353647209	82.27807324592459	85.19868491215934	0	0
22.31999999999961	2.117249137659923	-1.308819535496671	96.44608049600046	0	0.9399999999999999	0	5.187302565665074	0.5523543529898102	-0.319992927269772	5.453150510036092	0.0951754310069379	0	0	0	7.288408103889441	2.788067742666686	-2.042512164346367	4.86495559623933	0.08490949311770017	0	0	0	0	0	0	37.99883974232171	-37.99883974232171	4.801415300463251	82.27944360441599	85.19858496538511	0	0	37.99883974232171	-37.99883974232171	4.801415300463251	82.27944360441599	85.19858496534796	0	0
22.33999999999961	2.120887595428197	-1.245833709174298	96.52697287628871	0	0.9399999999999999	0	4.745889516054835	0.5426365579344852	-0.7066299320385063	4.508910935106153	0.07869534149677875	0	0	0	6.832633402135447	2.83262496925284	-2.009332968274928	4.511646030587038	0.0787430779182766	0	0	0	0	0	0	38.0002604411096	-38.0002604411096	4.801496085940116	82.28055123545943	85.19850417991201	0	0	38.0002604411096	-38.0002604411096	4.801496085940116	82.28055123545943	85.1985041798749	0	0
22.35999999999961	2.101240785253886	-1.122924480417966	96.62086776377376	0	0.9399999999999999	0	4.135278123990045	0.5899618331607779	-0.9527878497781438	3.26038123869254	0.05690438748543596	0	0	0	6.478997408308301	2.855981476057733	-1.801083280063637	4.286216008134171	0.07480858179362934	0	0	0	0	0	0	38.00164987038316	-38.00164987038317	4.801574946211315	82.28163246509021	85.1984253196445	0	0	38.00164987038316	-38.00164987038317	4.801574946211315	82.28163246509021	85.19842531960742	0	0
22.37999999999961	2.026577215414729	-0.9090645743309275	96.7060405732431	0	0.9399999999999999	0	3.860515942419275	0.5517978540436502	-1.251193260937944	2.527809933629428	0.04411860620645285	0	0	0	6.037965898249393	2.922366455264966	-1.647559255559371	4.061341038925503	0.07088377317561723	0	0	0	0	0	0	38.00319763652743	-38.00319763652744	4.801662996798282	82.28283970633932	85.19833726906172	0	0	38.00319763652743	-38.00319763652744	4.801662996798282	82.28283970633932	85.19833726902465	0	0
22.39999999999961	1.959988853985798	-0.6683672368525989	96.71316023868449	0	0.9399999999999999	0	3.62472740846257	0.5301829097965162	-1.297818375686663	2.266775711724974	0.03956269957383863	0	0	0	5.77470949094968	2.967103704679692	-1.665981645426775	4.090617944740229	0.07139475157688045	0	0	0	0	0	0	38.00399715404544	-38.00399715404544	4.801707941725841	82.28345591841443	85.19829232413622	0	0	38.00399715404544	-38.00399715404544	4.801707941725841	82.28345591841443	85.19829232409916	0	0
22.41999999999961	1.946467307226964	-0.3709301519976672	96.64288511209473	0	0.9399999999999999	0	3.350436532712442	0.5756531692514565	-1.135575807487598	2.103152007193437	0.03670692719545293	0	0	0	5.314638520690962	2.918055994838044	-1.662775922966669	3.987755820837379	0.06959946883918136	0	0	0	0	0	0	38.00490253143732	-38.00490253143732	4.801758012623242	82.2841423826326	85.19824225324103	0	0	38.00490253143732	-38.00490253143732	4.801758012623242	82.2841423826326	85.19824225320397	0	0
22.43999999999961	1.929768588446754	-0.1278738651189252	96.54981233117674	0	0.9399999999999999	0	3.148981893085522	0.6141676746085416	-0.937841177177288	2.021529627311839	0.03528234792320548	0	0	0	5.048314976289123	2.892547006323139	-1.789954883058146	3.992521021856002	0.06968263728647572	0	0	0	0	0	0	38.00543449544021	-38.00543449544022	4.801787803077707	82.28455081719241	85.19821246278798	0	0	38.00543449544021	-38.00543449544022	4.801787803077707	82.28455081719241	85.19821246275092	0	0
22.45999999999961	1.932477576897563	-0.02263860227722765	96.40126842372445	0	0.9399999999999999	0	1.153954368188482	0.2928496216478156	-0.05106540634510292	0.02304518061453264	0.0004022142784403648	0	0	0	4.655579440969536	2.894112853741459	-1.687617161088568	3.71541881193385	0.06484629135878167	0	0	0	0	0	0	38.00733315961631	-38.00733315961631	4.801895742610744	82.286030746911	85.19810452326003	0	0	38.00733315961631	-38.00733315961631	4.801895742610744	82.286030746911	85.19810452322297	0	0
22.47999999999961	1.892651858208429	-0.00417303071399825	96.25523790207377	0	0.9399999999999999	0	0.8751757701900144	0.1939902114790468	0.7555120364636093	-0.4208346008919228	-0.007344949391880317	0	0	0	4.505894715581235	2.927428439603949	-1.696109956326868	3.62720266386137	0.06330662912149004	0	0	0	0	0	0	38.00874408729051	-38.00874408729052	4.801976040891286	82.28713169696216	85.19802422498327	0	0	38.00874408729051	-38.00874408729052	4.801976040891286	82.28713169696216	85.19802422494621	0	0
22.49999999999961	1.808592791137415	-0.01053431559325245	96.08764157237923	0	0.9399999999999999	0	0.6600918420550185	0.09273681191996308	1.165460717741721	-0.771972948769354	-0.01347346969235473	0	0	0	4.371309919748751	3.012356162792731	-1.734567159605577	3.507440847480112	0.0612163911074682	0	0	0	0	0	0	38.00997585834307	-38.00997585834307	4.802045591973231	82.28808527686283	85.19795467390458	0	0	38.00997585834307	-38.00997585834307	4.802045591973231	82.28808527686283	85.19795467386751	0	0
22.51999999999961	1.764734450088518	0.03389412048478316	96.06802396323015	0	0.9399999999999999	0	0.5985065822232017	0.0727507029093537	1.170668910041043	-0.8875062377456231	-0.0154899059806487	0	0	0	4.164468684367363	3.039312378593383	-1.711674753116219	3.413049124662629	0.05956894475767328	0	0	0	0	0	0	38.01608284208498	-38.01608284208499	4.802371102962359	82.2925468682176	85.19762916293053	0	0	38.01608284208498	-38.01608284208499	4.802371102962359	82.2925468682176	85.19762916289352	0	0
